HIERARCHY
ROOT Hips
{
	OFFSET 0.000000 8.830580 0.000000
	CHANNELS 6 Xposition Yposition Zposition Zrotation Yrotation Xrotation 
	JOINT Spine
	{
		OFFSET 0.000000 0.010000 0.000000
		CHANNELS 3 Zrotation Yrotation Xrotation
		JOINT Spine1
		{
			OFFSET 0.000000 2.459130 0.000000
			CHANNELS 3 Zrotation Yrotation Xrotation
			JOINT Neck
			{
				OFFSET 0.000000 2.484630 0.000000
				CHANNELS 3 Zrotation Yrotation Xrotation
				JOINT Head_virtual
				{
					OFFSET 0.000000 0.000000 0.000000
					CHANNELS 3 Zrotation Yrotation Xrotation
					JOINT Head
					{
						OFFSET 0.000000 0.927525 0.000000
						CHANNELS 3 Zrotation Yrotation Xrotation
						End Site
						{
							OFFSET 0.000000 0.000000 0.000000
						}
					}
				}
				JOINT LeftUpArm_virtual
				{
					OFFSET 0.000000 0.000000 0.000000
					CHANNELS 3 Zrotation Yrotation Xrotation
					JOINT LeftUpArm
					{
						OFFSET 1.248820 0.000000 0.000000
						CHANNELS 3 Zrotation Yrotation Xrotation
						JOINT LeftForeArm
						{
							OFFSET 2.597580 0.000000 0.000000
							CHANNELS 3 Zrotation Yrotation Xrotation
							JOINT LeftHand
							{
								OFFSET 2.455420 0.000000 0.000000
								CHANNELS 3 Zrotation Yrotation Xrotation
								End Site
								{
									OFFSET 0.000000 0.000000 0.000000
								}
							}
						}
					}
				}
				JOINT RightUpArm_virtual
				{
					OFFSET -0.000000 -0.000000 -0.000000
					CHANNELS 3 Zrotation Yrotation Xrotation
					JOINT RightUpArm
					{
						OFFSET -1.248820 -0.000000 -0.000000
						CHANNELS 3 Zrotation Yrotation Xrotation
						JOINT RightForeArm
						{
							OFFSET -2.597580 -0.000000 -0.000000
							CHANNELS 3 Zrotation Yrotation Xrotation
							JOINT RightHand
							{
								OFFSET -2.455420 -0.000000 -0.000000
								CHANNELS 3 Zrotation Yrotation Xrotation
								End Site
								{
									OFFSET 0.000000 0.000000 0.000000
								}
							}
						}
					}
				}
			}
		}
	}
	JOINT LeftUpLeg
	{
		OFFSET 1.271939 0.000000 0.000000
		CHANNELS 3 Zrotation Yrotation Xrotation
		JOINT LeftLowLeg
		{
			OFFSET 0.000000 -4.342910 0.000000
			CHANNELS 3 Zrotation Yrotation Xrotation
			JOINT LeftFoot
			{
				OFFSET 0.000000 -4.487670 0.000000
				CHANNELS 3 Zrotation Yrotation Xrotation
				JOINT LeftToeBase
				{
					OFFSET 0.000000 0.000000 1.515070
					CHANNELS 3 Zrotation Yrotation Xrotation
					End Site
					{
						OFFSET 0.000000 0.000000 0.000000
					}
				}
			}
		}
	}
	JOINT RightUpLeg
	{
		OFFSET -1.271939 0.000000 0.000000
		CHANNELS 3 Zrotation Yrotation Xrotation
		JOINT RightLowLeg
		{
			OFFSET 0.000000 -4.342910 0.000000
			CHANNELS 3 Zrotation Yrotation Xrotation
			JOINT RightFoot
			{
				OFFSET 0.000000 -4.487670 0.000000
				CHANNELS 3 Zrotation Yrotation Xrotation
				JOINT RightToeBase
				{
					OFFSET 0.000000 0.000000 1.515070
					CHANNELS 3 Zrotation Yrotation Xrotation
					End Site
					{
						OFFSET 0.000000 0.000000 0.000000
					}
				}
			}
		}
	}
}
MOTION
Frames: 13
Frame Time: 0.041667
-17.037225 5.504813 43.741647 174.943719 2.537394 131.859988 -2.903733 2.270382 9.387986 -6.692704 0.072041 46.691550 0.000000 0.000000 0.000000 7.790918 2.480131 -4.077486 6.302108 10.789856 -91.682434 -13.244500 -16.409800 5.683014 -16.964399 -42.359100 21.366699 0.000000 -55.446499 0.000000 -27.966900 -4.828990 -43.887600 22.369499 11.009000 5.130005 32.416100 46.083000 13.122009 0.000000 53.836201 0.000000 44.204601 12.275400 -39.285500 -11.438485 -4.890609 -100.566578 0.000000 0.000000 141.447006 -14.593037 2.356065 33.303915 0.000000 0.000000 -30.747700 2.173517 10.079841 -103.482367 0.000000 0.000000 142.070007 68.536697 -16.453060 10.287317 0.000000 0.000000 73.618797 
-17.036492 5.504468 43.743764 174.887949 2.563953 132.062665 -2.855592 2.303615 9.144944 -6.732168 0.083622 46.750065 0.000000 0.000000 0.000000 7.385829 2.680850 -4.583783 6.449814 10.805671 -91.598658 -13.198300 -16.505100 5.588989 -16.974001 -42.263500 21.493401 0.000000 -55.488602 0.000000 -27.768700 -4.918560 -44.239300 22.316299 11.086800 5.059998 32.315498 45.960098 13.213013 0.000000 53.959202 0.000000 44.044899 12.362300 -39.323299 -11.432966 -4.911290 -100.718998 0.000000 0.000000 141.431000 -14.664785 2.409168 33.269320 0.000000 0.000000 -30.596000 2.126446 10.072586 -103.683077 0.000000 0.000000 142.149002 68.415517 -16.077108 10.391085 0.000000 0.000000 72.585899 
-17.035140 5.504048 43.742675 174.755300 2.520163 131.703593 -2.867710 2.373379 9.395023 -6.795661 0.130583 46.937961 0.000000 0.000000 0.000000 7.311022 2.629368 -5.180880 6.491452 10.780746 -91.447110 -13.115300 -16.495100 5.497986 -16.963200 -42.343800 21.518101 0.000000 -55.508999 0.000000 -27.870600 -4.983250 -44.498402 22.212000 11.063600 4.764008 32.540298 45.848801 13.505005 0.000000 54.068501 0.000000 43.953499 12.429500 -39.225800 -11.582847 -4.809804 -100.285759 0.000000 0.000000 141.416000 -14.574929 2.437449 33.287930 0.000000 0.000000 -30.730200 2.099309 10.050328 -103.378063 0.000000 0.000000 142.164993 68.564101 -16.073844 10.397342 0.000000 0.000000 72.792603 
-17.025887 5.500401 43.751951 174.687061 2.762104 132.787605 -2.837917 2.507131 8.373493 -6.843676 0.162864 47.026948 0.000000 0.000000 0.000000 7.353847 2.521843 -5.693044 6.590481 10.757944 -91.365138 -13.077800 -16.457001 5.490997 -16.594299 -42.364498 21.250401 0.000000 -55.621201 0.000000 -28.079800 -5.054090 -44.391499 22.363701 11.238900 4.908997 32.083199 45.853401 13.109009 0.000000 54.310699 0.000000 43.910099 12.445600 -39.206600 -11.222869 -4.716047 -101.379254 0.000000 0.000000 141.371994 -14.508173 2.299497 33.413033 0.000000 0.000000 -30.817500 2.151217 10.348171 -104.291195 0.000000 0.000000 141.981003 68.415172 -15.689238 10.189698 0.000000 0.000000 73.013397 
-17.026027 5.498979 43.745637 174.555493 2.677108 132.282898 -2.832573 2.535712 8.746841 -7.006834 0.126084 47.166150 0.000000 0.000000 0.000000 7.599787 2.148592 -6.038541 6.491939 10.597370 -91.229998 -12.995700 -16.372200 5.342987 -16.711201 -42.310101 21.335100 0.000000 -55.735802 0.000000 -28.156700 -5.171320 -44.437199 22.330900 11.233100 5.028015 32.001701 45.988800 12.976013 0.000000 54.402901 0.000000 44.067402 12.469100 -39.151402 -11.414472 -4.657808 -100.872651 0.000000 0.000000 141.412994 -14.484290 2.330292 33.407846 0.000000 0.000000 -30.888700 2.072246 10.273431 -103.934291 0.000000 0.000000 142.123993 68.560255 -15.556603 10.287862 0.000000 0.000000 72.649300 
-17.022700 5.496681 43.742917 174.488452 2.641333 132.214670 -2.858028 2.543410 8.790468 -7.062788 0.095295 47.184084 0.000000 0.000000 0.000000 8.159541 1.579555 -6.234162 6.132679 10.429778 -91.186428 -12.968300 -16.334400 5.359009 -16.676500 -42.235600 21.251301 0.000000 -55.846100 0.000000 -28.158701 -5.174250 -44.852402 22.319599 11.232400 4.960999 31.992701 45.953899 13.141998 0.000000 54.565800 0.000000 43.939201 12.523600 -39.257702 -11.446563 -4.632673 -100.856174 0.000000 0.000000 141.436996 -14.464840 2.366712 33.457891 0.000000 0.000000 -30.846500 2.079499 10.259035 -103.928906 0.000000 0.000000 142.169006 68.442570 -15.430086 10.268412 0.000000 0.000000 72.600304 
-17.020529 5.500022 43.738554 174.530949 2.631126 132.069905 -2.768722 2.495471 8.772324 -7.133485 0.084585 47.421867 0.000000 0.000000 0.000000 8.808969 0.963371 -6.400444 5.607138 10.283556 -91.220906 -12.980500 -16.357000 5.273010 -16.602400 -42.106499 21.201599 0.000000 -55.961399 0.000000 -28.103701 -5.452030 -45.117599 22.335600 11.234400 4.877014 31.948299 45.988800 13.243988 0.000000 54.646999 0.000000 43.951000 12.527100 -39.255600 -11.414239 -4.662892 -100.672240 0.000000 0.000000 141.485992 -14.479638 2.377831 33.322828 0.000000 0.000000 -30.916500 2.148026 10.158358 -103.783448 0.000000 0.000000 142.255997 68.495885 -15.205793 10.326798 0.000000 0.000000 71.961899 
-17.018686 5.500703 43.738532 174.526190 2.672445 132.300940 -2.723832 2.491281 8.535907 -7.176710 0.060837 47.439034 0.000000 0.000000 0.000000 9.196813 0.575997 -6.389534 5.258782 10.183108 -91.337877 -12.970100 -16.402100 5.135010 -16.663799 -41.928001 21.320999 0.000000 -56.041500 0.000000 -28.121099 -5.496340 -45.203701 22.409901 11.313200 4.782990 31.881300 45.883202 13.364990 0.000000 54.718101 0.000000 43.913898 12.598800 -39.240299 -11.342684 -4.680560 -100.888047 0.000000 0.000000 141.501999 -14.469568 2.369704 33.216277 0.000000 0.000000 -30.865800 2.288152 10.180311 -103.984765 0.000000 0.000000 142.244995 68.556016 -15.166719 9.967221 0.000000 0.000000 72.063904 
-17.018759 5.501862 43.728999 174.475233 2.555297 132.085697 -2.722653 2.422766 8.650472 -7.272613 -0.025446 47.514506 0.000000 0.000000 0.000000 9.659302 0.011126 -6.576966 4.822307 9.977949 -91.268146 -12.915600 -16.327200 5.084991 -16.766199 -41.845699 21.378799 0.000000 -56.148300 0.000000 -28.218000 -5.550120 -45.201900 22.283600 11.257200 4.615997 32.268799 45.828499 13.743011 0.000000 54.799000 0.000000 43.784599 12.588000 -39.023602 -11.477810 -4.763634 -100.672285 0.000000 0.000000 141.578995 -14.487648 2.406569 33.093028 0.000000 0.000000 -30.784200 2.285082 10.031930 -103.843438 0.000000 0.000000 142.473007 68.798402 -14.823788 9.831558 0.000000 0.000000 71.298203 
-17.017200 5.502205 43.729826 174.373368 2.565227 132.078533 -2.774797 2.412732 8.702725 -7.289250 -0.054811 47.516630 0.000000 0.000000 0.000000 9.815691 -0.275131 -6.676320 4.537286 9.862011 -91.306320 -12.891000 -16.236200 5.089996 -16.700399 -41.903198 21.337700 0.000000 -56.122002 0.000000 -28.311100 -5.626560 -45.225101 22.297400 11.289400 4.678009 32.232498 45.901199 13.682007 0.000000 54.799301 0.000000 43.742199 12.630900 -38.830700 -11.496161 -4.699206 -100.640367 0.000000 0.000000 141.561005 -14.496900 2.392225 33.043876 0.000000 0.000000 -30.805200 2.307874 10.061010 -103.794604 0.000000 0.000000 142.462997 68.759561 -14.610200 9.663259 0.000000 0.000000 71.408096 
-17.014768 5.501563 43.729713 174.265243 2.640797 132.190234 -2.775212 2.446451 8.667671 -7.293661 -0.051904 47.423224 0.000000 0.000000 0.000000 9.726564 -0.425975 -6.721839 4.518194 9.711764 -91.245130 -12.829800 -16.251400 5.053986 -16.740601 -41.848801 21.460199 0.000000 -56.113300 0.000000 -28.317101 -5.769440 -45.342899 22.342800 11.331300 4.813995 32.063301 45.897800 13.584015 0.000000 54.880001 0.000000 43.576500 12.678800 -38.577702 -11.480941 -4.612990 -100.744937 0.000000 0.000000 141.582993 -14.584034 2.437637 32.945794 0.000000 0.000000 -30.728600 2.274349 10.152367 -103.920941 0.000000 0.000000 142.453995 68.674334 -14.386054 9.707953 0.000000 0.000000 71.273201 
-17.016062 5.446994 43.761599 176.252683 1.713489 133.922820 -2.073084 0.965788 8.933280 -7.114613 -1.117575 45.165460 0.000000 0.000000 0.000000 9.444481 -0.566675 -6.445558 4.591422 9.381887 -90.728767 -12.770200 -16.132999 5.446991 -17.061501 -41.889099 21.680700 0.000000 -56.061401 0.000000 -28.369699 -5.975130 -45.582401 22.036200 11.149100 5.223999 32.403599 45.890800 13.760010 0.000000 54.936298 0.000000 43.392799 12.664700 -38.249802 -11.559158 -6.046430 -102.313481 0.000000 0.000000 140.867004 -13.675510 2.966584 32.262656 0.000000 0.000000 -33.811001 2.756968 8.117826 -105.630432 0.000000 0.000000 142.328003 68.524175 -14.160473 9.522436 0.000000 0.000000 71.620796 
-17.014411 5.446313 43.758564 176.157598 1.706088 133.988568 -2.133620 0.964165 8.913552 -7.069334 -1.128504 45.063135 0.000000 0.000000 0.000000 9.308977 -0.642524 -6.376670 4.614421 9.241455 -90.596167 -12.747700 -16.168100 5.459015 -17.089199 -41.841099 21.857800 0.000000 -56.062401 0.000000 -28.299299 -6.129010 -45.800900 21.964300 11.171300 5.257996 32.466900 45.750401 13.803009 0.000000 55.089500 0.000000 43.195202 12.611700 -38.000801 -11.558254 -6.039920 -102.381347 0.000000 0.000000 140.899002 -13.163384 2.797277 32.322185 0.000000 0.000000 -33.837601 2.725512 8.167806 -105.761883 0.000000 0.000000 142.395004 68.551035 -14.096465 9.469779 0.000000 0.000000 71.483002 
